# Object Export From Tinkercad Server 2015

mtllib obj.mtl

o obj_0
v 8.5 		-3.177 		0
v 8.2 		-3.901 		0
v 7.723 		-4.523 		0
v 7.101 		-5 		0
v 6.377 		-5.3 		0
v 2.7 		-1.623 		0
v 3 		-0.899 		0
v 3.477 		-0.277 		0
v 4.099 		0.2 		0
v 4.823 		0.5 		0
v 8.5 		-3.177 		4.996
v 8.2 		-3.901 		4.996
v 7.723 		-4.523 		4.996
v 7.101 		-5 		4.996
v 6.377 		-5.3 		4.996
v 2.7 		-1.623 		4.996
v 3 		-0.899 		4.996
v 3.477 		-0.277 		4.996
v 4.099 		0.2 		4.996
v 4.823 		0.5 		4.996
v -0.763 		1.5525 		0
v -3.461 		4.661 		0
v -1.461 		6.661 		0
v 1.6476 		3.963 		0
v 1.6476 		3.963 		4.996
v -1.461 		6.661 		4.996
v -3.461 		4.661 		4.996
v -0.763 		1.5525 		4.996
v 11.963 		-6.3524 		0
v 14.661 		-9.461 		0
v 12.661 		-11.461 		0
v 9.5525 		-8.763 		0
v 14.661 		-9.461 		4.996
v 11.963 		-6.3524 		4.996
v 9.5525 		-8.763 		4.996
v 12.661 		-11.461 		4.996
v 3.8953 		4.894 		0
v 3.8953 		4.894 		4.996
v 8.2 		-0.899 		4.996
v 8.5 		-1.623 		4.996
v 8.603 		-2.4 		4.996
v 4.186 		9 		4.996
v 4.186 		9 		0
v 9.5525 		3.963 		0
v 7.3047 		4.894 		0
v 7.3047 		4.894 		4.996
v 9.5525 		3.963 		4.996
v 8.603 		-2.4 		0
v 8.2 		-0.899 		0
v 7.014 		9 		4.996
v 7.014 		9 		0
v 8.5 		-1.623 		0
v 12.661 		6.661 		4.996
v 12.661 		6.661 		0
v 12.894 		-0.6953 		0
v 17 		-0.986 		0
v 17 		-3.814 		0
v 12.894 		-4.1047 		0
v 11.963 		1.5525 		0
v 11.963 		1.5525 		4.996
v 12.894 		-0.6953 		4.996
v 17 		-0.986 		4.996
v 12.894 		-4.1047 		4.996
v 17 		-3.814 		4.996
v 14.661 		4.661 		4.996
v 14.661 		4.661 		0
v 7.3047 		-9.6939 		4.996
v 7.3047 		-9.6939 		0
v 6.377 		0.5 		0
v 7.101 		0.2 		0
v 7.014 		-13.8 		4.996
v 7.014 		-13.8 		0
v 7.723 		-0.277 		0
v 1.6476 		-8.763 		0
v 3.8953 		-9.6939 		0
v 3.8953 		-9.6939 		4.996
v 1.6476 		-8.763 		4.996
v 4.186 		-13.8 		0
v 4.186 		-13.8 		4.996
v 5.6 		-5.403 		0
v 6.377 		0.5 		4.996
v 5.6 		-5.403 		4.996
v 7.101 		0.2 		4.996
v 7.723 		-0.277 		4.996
v -1.461 		-11.461 		4.996
v -1.461 		-11.461 		0
v -1.6939 		-4.1047 		0
v -0.763 		-6.3524 		0
v -0.763 		-6.3524 		4.996
v -1.6939 		-4.1047 		4.996
v -3.461 		-9.461 		0
v -3.461 		-9.461 		4.996
v 4.823 		-5.3 		0
v 4.099 		-5 		0
v 3.477 		-4.523 		0
v 4.823 		-5.3 		4.996
v 4.099 		-5 		4.996
v 3.477 		-4.523 		4.996
v -5.8 		-3.814 		4.996
v -5.8 		-3.814 		0
v -1.6939 		-0.6953 		0
v -1.6939 		-0.6953 		4.996
v -5.8 		-0.986 		0
v -5.8 		-0.986 		4.996
v 3 		-3.901 		0
v 2.7 		-3.177 		0
v 3 		-3.901 		4.996
v 2.7 		-3.177 		4.996
v 2.597 		-2.4 		0
v 2.597 		-2.4 		4.996
v 5.6 		0.603 		0
v 5.6 		0.603 		4.996
# 112 vertices

g group_0_16448250

usemtl color_16448250
s 0

f 11 	48 	1
f 1 	2 	12
f 12 	2 	3
f 11 	1 	12
f 3 	13 	12
f 13 	3 	4
f 13 	4 	14
f 5 	15 	4
f 14 	4 	15
f 16 	109 	6
f 7 	17 	16
f 7 	16 	6
f 17 	7 	18
f 8 	18 	7
f 9 	19 	18
f 9 	18 	8
f 19 	9 	20
f 10 	20 	9
f 10 	111 	20
f 23 	24 	22
f 21 	22 	24
f 25 	26 	27
f 27 	28 	25
f 31 	32 	30
f 29 	30 	32
f 33 	34 	35
f 33 	35 	36
f 43 	37 	38
f 43 	38 	42
f 41 	11 	63
f 44 	45 	46
f 44 	46 	47
f 50 	46 	45
f 50 	45 	51
f 51 	43 	42
f 51 	42 	50
f 48 	11 	41
f 38 	112 	46
f 43 	51 	37
f 51 	45 	37
f 39 	49 	52
f 39 	52 	40
f 42 	38 	46
f 42 	46 	50
f 40 	52 	48
f 40 	48 	41
f 53 	54 	44
f 44 	47 	53
f 57 	58 	56
f 55 	56 	58
f 55 	59 	60
f 55 	60 	61
f 41 	63 	61
f 62 	61 	63
f 62 	63 	64
f 60 	40 	61
f 34 	33 	30
f 34 	30 	29
f 65 	60 	59
f 65 	59 	66
f 35 	67 	68
f 35 	68 	32
f 66 	54 	53
f 66 	53 	65
f 67 	71 	72
f 67 	72 	68
f 74 	75 	76
f 74 	76 	77
f 78 	79 	76
f 69 	44 	70
f 75 	78 	76
f 78 	72 	71
f 78 	71 	79
f 55 	52 	59
f 59 	73 	44
f 80 	5 	68
f 76 	67 	82
f 96 	76 	82
f 15 	82 	67
f 40 	60 	39
f 83 	47 	81
f 84 	47 	83
f 84 	39 	60
f 41 	61 	40
f 60 	47 	84
f 46 	81 	47
f 81 	69 	83
f 70 	83 	69
f 73 	83 	70
f 73 	84 	83
f 49 	39 	73
f 84 	73 	39
f 54 	66 	44
f 66 	59 	44
f 53 	47 	60
f 53 	60 	65
f 56 	55 	61
f 56 	61 	62
f 29 	58 	63
f 29 	63 	34
f 3 	2 	29
f 64 	63 	58
f 64 	58 	57
f 57 	56 	62
f 57 	62 	64
f 73 	59 	49
f 70 	44 	73
f 49 	59 	52
f 48 	52 	55
f 80 	93 	96
f 80 	82 	15
f 80 	15 	5
f 82 	80 	96
f 72 	78 	68
f 78 	75 	68
f 74 	93 	75
f 35 	15 	67
f 71 	67 	76
f 71 	76 	79
f 77 	85 	86
f 77 	86 	74
f 87 	88 	89
f 87 	89 	90
f 88 	91 	92
f 88 	92 	89
f 91 	86 	85
f 91 	85 	92
f 80 	75 	93
f 95 	98 	94
f 97 	94 	98
f 98 	95 	105
f 91 	88 	86
f 74 	86 	88
f 85 	77 	89
f 85 	89 	92
f 100 	87 	99
f 90 	99 	87
f 101 	103 	104
f 101 	104 	102
f 103 	100 	99
f 103 	99 	104
f 95 	88 	105
f 105 	88 	106
f 101 	109 	87
f 106 	108 	105
f 105 	107 	98
f 108 	107 	105
f 106 	109 	108
f 100 	103 	87
f 87 	103 	101
f 90 	110 	102
f 99 	90 	102
f 99 	102 	104
f 36 	35 	32
f 36 	32 	31
f 31 	30 	33
f 31 	33 	36
f 102 	28 	21
f 102 	21 	101
f 106 	87 	109
f 8 	7 	21
f 108 	110 	90
f 16 	102 	110
f 102 	16 	28
f 110 	108 	109
f 110 	109 	16
f 22 	21 	27
f 28 	27 	21
f 24 	38 	37
f 38 	24 	25
f 111 	45 	69
f 37 	45 	111
f 44 	69 	45
f 111 	10 	37
f 81 	46 	112
f 20 	112 	38
f 38 	25 	20
f 19 	20 	25
f 81 	111 	69
f 112 	20 	111
f 112 	111 	81
f 26 	25 	24
f 26 	24 	23
f 23 	22 	27
f 23 	27 	26
f 55 	58 	48
f 1 	48 	58
f 3 	32 	4
f 5 	4 	32
f 109 	101 	6
f 101 	21 	6
f 10 	9 	24
f 24 	37 	10
f 58 	29 	1
f 2 	1 	29
f 32 	3 	29
f 32 	68 	5
f 21 	24 	8
f 7 	6 	21
f 9 	8 	24
f 12 	34 	11
f 15 	35 	14
f 17 	28 	16
f 19 	25 	18
f 18 	28 	17
f 25 	28 	18
f 13 	34 	12
f 35 	34 	13
f 63 	11 	34
f 13 	14 	35
f 74 	95 	94
f 93 	74 	94
f 68 	75 	80
f 74 	88 	95
f 87 	106 	88
f 98 	77 	97
f 96 	97 	77
f 107 	89 	98
f 108 	89 	107
f 77 	76 	96
f 77 	98 	89
f 90 	89 	108
f 96 	93 	94
f 96 	94 	97
# 224 faces

 #end of obj_0

